<svg xmlns="http://www.w3.org/2000/svg" viewBox="0 0 555.64 64.41"><defs><style>.cls-1{fill:#e0aa10;}.cls-2{fill:#b7870f;}</style></defs><title>Asset 1</title><g id="Layer_2" data-name="Layer 2"><g id="Layer_1-2" data-name="Layer 1"><path class="cls-1" d="M82.27,15.83a37.94,37.94,0,0,0-16.9-3.47c-12.63,0-20.73,8-20.73,19.93C44.64,44.39,51.4,52,63.15,52a35.85,35.85,0,0,0,6.41-.53V39.14H59.77V27.58H84.5V61.83a77.68,77.68,0,0,1-19.3,2.58c-24.55,0-37.81-11-37.81-31.4,0-20.82,14.5-33,37.27-33A60.63,60.63,0,0,1,83.61,2.76Z"/><path class="cls-1" d="M144.46,32c0,20.73-12.54,32.38-32.2,32.38-18.86,0-31.14-11.83-31.14-32.47C81.12,11.56,93.75,0,113.41,0,131.82,0,144.46,12.1,144.46,32Zm-46.08.53c0,12.28,5.87,19.66,14.41,19.66S127.11,45,127.11,32.65c0-13.17-5.6-20.37-14.68-20.37C103.89,12.28,98.38,19.66,98.38,32.56Z"/><path class="cls-1" d="M157.63,50.71H182.8V63.25H140.72V1.16h16.9Z"/><path class="cls-1" d="M199.79,1.16c21,0,37.1,8.36,37.1,31.31,0,21.71-16.55,30.78-37.1,30.78H177.38V1.16Zm-5.43,50.08h2.76c12.9,0,22.6-4.63,22.6-18.86,0-14.95-9.7-18.95-22.6-18.95h-2.76Z"/><path class="cls-2" d="M275.06,26c-.62-3.11-1.6-9.16-2-13.17h-.18c-.36,4-1.25,10.14-1.78,13.17l-6.76,37.27H242.41L227.91,1.16h17.26l6,31.67c.36,2.13,2.22,12.45,2.76,17.26h.18c.53-4.8,2.22-15.12,2.58-17.26l5.52-31.67H284.4l6.23,31.67c.44,2.13,2.22,12.72,2.76,17.26h.18c.53-4.45,2.31-14.86,2.76-17.26L302,1.16h16.37L304.32,63.25H282.44Z"/><path class="cls-2" d="M372.38,63.25H354.23L349.61,50H326.3l-4.89,13.25H304.68L328.35,1.16h20ZM343.2,30c-1.42-4.71-4.09-13.61-4.89-16.9h-.18c-.8,3.29-3.56,12.19-5.16,16.9l-2.85,8.36h15.66Z"/><path class="cls-2" d="M431.9,63.25H413.75L409.13,50H385.82l-4.89,13.25H364.2L387.86,1.16h20ZM402.72,30c-1.42-4.71-4.09-13.61-4.89-16.9h-.18c-.8,3.29-3.56,12.19-5.16,16.9l-2.85,8.36H405.3Z"/><path class="cls-2" d="M478.07,15.83a37.93,37.93,0,0,0-16.9-3.47c-12.63,0-20.73,8-20.73,19.93,0,12.1,6.76,19.75,18.5,19.75a35.85,35.85,0,0,0,6.41-.53V39.14h-9.79V27.58h24.73V61.83A77.68,77.68,0,0,1,461,64.41c-24.55,0-37.81-11-37.81-31.4,0-20.82,14.5-33,37.27-33a60.63,60.63,0,0,1,18.95,2.76Z"/><path class="cls-2" d="M524.24,1.16V13.08H498V25.89h57.64V37.81H498V51.24h27.13v12H481.54V1.16Z"/><path class="cls-1" d="M0,25.89H32V37.81H0Z"/></g></g></svg>